<?xml version="1.0" encoding="iso-8859-1"?>
<!-- Generator: Adobe Illustrator 19.0.0, SVG Export Plug-In . SVG Version: 6.00 Build 0)  -->
<svg version="1.1" id="Capa_1" xmlns="http://www.w3.org/2000/svg" xmlns:xlink="http://www.w3.org/1999/xlink" x="0px" y="0px"
	 viewBox="0 0 512 512" style="enable-background:new 0 0 512 512;" xml:space="preserve">
<g>
	<g>
		<path d="M331,202.274v60c16.538,0,30-13.462,30-30C361,215.736,347.538,202.274,331,202.274z"/>
	</g>
</g>
<g>
	<g>
		<rect x="211" y="202.27" width="90" height="60"/>
	</g>
</g>
<g>
	<g>
		<path d="M374.124,20.399c-47.556,0-81.21,19.887-103.124,42.354v109.521h60c33.091,0,60,26.909,60,60s-26.909,60-60,60h-74.702
			l-12.003,60h61.069l-35.927,139.327c20.691-19.354,40.457-37.425,58.984-54.337C437.245,337.933,512,272.308,512,176.302
			C512,87.415,451.088,20.399,374.124,20.399z"/>
	</g>
</g>
<g>
	<g>
		<path d="M151,232.274c0,16.538,13.462,30,30,30v-60C164.462,202.274,151,215.736,151,232.274z"/>
	</g>
</g>
<g>
	<g>
		<path d="M207.704,382.274l18.003-90H181c-33.091,0-60-26.909-60-60s26.909-60,60-60h60V64.485
			c-21.105-21.912-55.056-44.086-106.876-44.086C57.162,20.399,0,87.416,0,176.302c0,94.161,69.73,158.086,176.591,254.854
			c19.62,17.769,40.67,36.901,62.642,57.378l27.402-106.26H207.704z"/>
	</g>
</g>
<g>
</g>
<g>
</g>
<g>
</g>
<g>
</g>
<g>
</g>
<g>
</g>
<g>
</g>
<g>
</g>
<g>
</g>
<g>
</g>
<g>
</g>
<g>
</g>
<g>
</g>
<g>
</g>
<g>
</g>
</svg>
